<?xml version="1.0" encoding="UTF-8" standalone="no"?>
<!-- Svg Vector Icons : http://www.onlinewebfonts.com/icon -->

<svg
   xmlns:dc="http://purl.org/dc/elements/1.1/"
   xmlns:cc="http://creativecommons.org/ns#"
   xmlns:rdf="http://www.w3.org/1999/02/22-rdf-syntax-ns#"
   xmlns:svg="http://www.w3.org/2000/svg"
   xmlns="http://www.w3.org/2000/svg"
   xmlns:sodipodi="http://sodipodi.sourceforge.net/DTD/sodipodi-0.dtd"
   xmlns:inkscape="http://www.inkscape.org/namespaces/inkscape"
   version="1.1"
   x="0px"
   y="0px"
   viewBox="0 0 1000 1000"
   enable-background="new 0 0 1000 1000"
   xml:space="preserve"
   id="svg869"
   sodipodi:docname="logo.svg"
   inkscape:version="0.92.3 (2405546, 2018-03-11)"><defs
   id="defs873" /><sodipodi:namedview
   pagecolor="#ffffff"
   bordercolor="#666666"
   borderopacity="1"
   objecttolerance="10"
   gridtolerance="10"
   guidetolerance="10"
   inkscape:pageopacity="0"
   inkscape:pageshadow="2"
   inkscape:window-width="1366"
   inkscape:window-height="705"
   id="namedview871"
   showgrid="false"
   inkscape:zoom="0.536"
   inkscape:cx="500"
   inkscape:cy="500"
   inkscape:window-x="-8"
   inkscape:window-y="-8"
   inkscape:window-maximized="1"
   inkscape:current-layer="svg869" />
<metadata
   id="metadata845"> Svg Vector Icons : http://www.onlinewebfonts.com/icon <rdf:RDF><cc:Work
     rdf:about=""><dc:format>image/svg+xml</dc:format><dc:type
       rdf:resource="http://purl.org/dc/dcmitype/StillImage" /></cc:Work></rdf:RDF></metadata>
<path
   d="m 487.59,13.21 c -3.92,1.74 -9.15,6.32 -11.54,10.24 -4.14,6.97 -4.36,10.67 -4.36,102.8 v 95.4 l 8.49,8.49 c 7.62,7.62 9.58,8.49 19.82,8.49 10.24,0 12.2,-0.87 19.82,-8.49 l 8.5,-8.49 v -95.4 c 0,-92.13 -0.22,-95.83 -4.36,-102.8 -4.57,-7.41 -15.68,-13.5 -24.39,-13.5 -2.84,0.21 -8.28,1.52 -11.98,3.26 z"
   id="path847"
   inkscape:connector-curvature="0"
   style="stroke-width:0.1" /><path
   d="m 160.01,149.99 c -10.02,6.53 -15.9,18.95 -13.94,29.4 1.09,6.97 10.67,17.42 69.26,76.01 l 67.96,68.17 h 11.76 c 10.67,0 12.42,-0.65 20.04,-8.49 7.84,-7.62 8.49,-9.37 8.49,-20.04 V 283.5 L 257.8,217.29 c -36.37,-36.37 -68.61,-67.52 -71.87,-69.26 -8.49,-4.35 -17.42,-3.7 -25.92,1.96 z"
   id="path849"
   inkscape:connector-curvature="0"
   style="stroke-width:0.1" /><path
   d="m 812.55,149.12 c -3.48,2.18 -35.72,33.32 -71.22,69.26 l -64.9,65.12 v 11.54 c 0,10.67 0.65,12.42 8.5,20.04 7.62,7.84 9.36,8.49 20.04,8.49 h 11.53 l 66.21,-65.99 c 36.37,-36.16 67.52,-68.39 69.26,-71.66 6.53,-12.41 1.09,-28.1 -12.63,-36.59 -8.93,-5.44 -18.3,-5.44 -26.79,-0.21 z"
   id="path851"
   inkscape:connector-curvature="0"
   style="stroke-width:0.1" /><path
   d="m 473.43,306.16 c -66.21,10.45 -120.23,49.65 -148.76,107.81 -14.59,29.84 -19.38,50.53 -19.38,86.03 0,35.5 4.79,56.19 19.38,86.03 25.27,51.18 73.62,90.39 128.5,103.89 27.44,6.53 66.21,6.53 93.65,0 68.39,-16.77 124.58,-72.53 143.1,-142.01 6.97,-26.35 6.97,-69.48 0,-95.83 -22.43,-84.29 -96.05,-143.75 -182.08,-147.02 -12.2,-0.43 -27.66,0.01 -34.41,1.1 z m 60.11,60.98 c 46.39,11.76 83.2,46.83 97.79,92.57 3.7,11.98 4.79,20.47 4.79,40.29 0,19.82 -1.09,28.31 -4.79,40.29 -13.72,42.91 -48.13,77.32 -91.04,91.04 -11.98,3.7 -20.47,4.79 -40.29,4.79 -19.82,0 -28.31,-1.09 -40.29,-4.79 -42.47,-13.5 -77.32,-47.92 -90.61,-89.95 -6.53,-20.04 -7.84,-49.66 -3.27,-70.13 14.16,-63.16 69.04,-107.81 133.29,-108.25 10.68,-0.22 24.19,1.53 34.42,4.14 z"
   id="path853"
   inkscape:connector-curvature="0"
   style="stroke-width:0.1" /><path
   d="m 22.8,476.69 c -4.8,3.27 -8.5,8.28 -10.68,14.16 -2.83,8.06 -2.83,10.24 0,18.3 2.18,5.88 5.88,10.89 10.68,14.15 l 7.41,5.01 h 95.83 95.62 l 8.49,-8.5 c 7.62,-7.62 8.49,-9.58 8.49,-19.82 0,-10.24 -0.87,-12.2 -8.49,-19.82 l -8.49,-8.49 H 126.04 30.2 Z"
   id="path855"
   inkscape:connector-curvature="0"
   style="stroke-width:0.1" /><path
   d="m 769.86,480.18 c -7.62,7.62 -8.5,9.58 -8.5,19.82 0,10.24 0.87,12.2 8.5,19.82 l 8.49,8.5 h 95.62 95.83 l 7.4,-5.01 c 4.79,-3.27 8.5,-8.28 10.67,-14.16 2.83,-8.06 2.83,-10.24 0,-18.3 -2.17,-5.88 -5.87,-10.89 -10.67,-14.16 l -7.4,-5.01 h -95.83 -95.62 z"
   id="path857"
   inkscape:connector-curvature="0"
   style="stroke-width:0.1" /><path
   d="m 217.29,742.2 c -36.37,36.37 -67.52,68.61 -69.26,71.87 -4.36,8.49 -3.7,17.42 1.96,25.92 7.19,10.67 18.08,16.12 28.75,14.16 7.84,-1.52 16.12,-9.15 76.88,-69.48 l 67.95,-67.96 v -11.76 c 0,-10.67 -0.65,-12.41 -8.49,-20.04 -7.62,-7.84 -9.37,-8.5 -20.04,-8.5 H 283.5 Z"
   id="path859"
   inkscape:connector-curvature="0"
   style="stroke-width:0.1" /><path
   d="m 684.92,684.92 c -7.84,7.62 -8.5,9.36 -8.5,20.04 v 11.54 l 66.87,67.08 c 36.81,36.81 69.48,67.95 72.96,69.48 22,8.93 46.83,-18.08 35.72,-38.99 -1.74,-3.27 -32.89,-35.5 -69.26,-71.87 L 716.5,676.42 h -11.54 c -10.68,0 -12.42,0.65 -20.04,8.5 z"
   id="path861"
   inkscape:connector-curvature="0"
   style="stroke-width:0.1" /><path
   d="m 480.18,769.86 -8.49,8.49 v 95.4 c 0,89.73 0.22,96.05 4.14,102.37 4.36,6.97 16.12,13.94 23.96,13.94 8.71,0 19.6,-6.1 24.18,-13.5 4.14,-6.97 4.36,-10.67 4.36,-102.8 v -95.4 l -8.5,-8.49 c -7.62,-7.62 -9.58,-8.5 -19.82,-8.5 -10.24,0 -12.21,0.86 -19.83,8.49 z"
   id="path863"
   inkscape:connector-curvature="0"
   style="stroke-width:0.1" />
</svg>